<svg xmlns="http://www.w3.org/2000/svg" width="118" height="61.333"><path fill-rule="evenodd" clip-rule="evenodd" fill="#2C858D" d="M16.574 50.98c.021-.124.073-.286.137-.429-.009-.183.026-.393.265-.701.039-.161.073-.318.043-.5.403-.934.888-1.781 1.31-2.694l.247-.075c.405-.599.682-1.559 1.112-2.124l.617-.446c.156-.228.245-.654.371-.987.643-1.702 1.27-3.28 2.001-4.868.195-.426.447-.974.742-1.335.113-.14.292-.268.321-.37v-.496c.041-.38.252-.791.396-1.21.134-.394.426-.682.519-1.088.113-.494.139-.943.248-1.358.163-.614.387-1.328.741-1.73-.055-.191-.009-.483-.024-.715-.099 0-.159-.04-.197-.099.066-.698.184-1.384.222-2.102.021-.377.125-.783.075-1.185l-.1-.371c-.051-.497-.005-1.01.024-1.41.047-.621.442-.995.494-1.532.062-.637.187-1.28.322-1.828.05-.204.138-.463.125-.592-.022-.196-.245-.261-.297-.446l.074-.197c-.446-.946.229-1.771.816-2.199-.09-.855.389-1.497.445-2.274.025-.35-.062-.699-.074-.938-.015-.268.074-.363.124-.544l.173-.914c.197-.768.648-1.491 1.038-2.126.431-.701.904-1.33 1.557-1.631.066-.223.291-.285.395-.47.043-.056.188-.009.272-.024.658-.363.968-1.075 1.31-1.754-.154-.018-.103-.172-.149-.272-.071-.161-.288-.228-.246-.494.018-.073.074-.108.049-.223-.289-.317-.295-.815-.247-1.21.022-.182.089-.468.174-.643l.172-.247c.096-.261.042-.438.174-.618l.198-.172c.12-.167.205-.379.345-.544.181-.215.533-.322.767-.47l.37-.37c.282-.144.744-.217 1.087-.274.281-.046.587-.013.815.051l.345.024.272.15c.226.076.414.076.569.172l.321.322.198.099.148.247c.228.244.523.295.519.644.448.382.991 1.927.296 2.396l-.247-.025c-.054.306-.172.545-.248.766l-.074.322c-.077.21-.295.314-.396.496-.188.339.195.718.098 1.185-.086.159-.264.229-.543.198-.118.087-.044.37-.124.495l-.222.099c.076.127-.042.246-.099.322l-.295.049c-.28.242-.544.567-.989.519-.456-.056-.605-.562-.916-.774-.292.279-.61.529-.718.989.412.474.803 1.162.866 2.025l-.049 1.409.099 1.212c.021.475-.057.879-.099 1.309-.027.271-.033.65 0 .864.058.391.398.647.37 1.039-.177.341-.032.688-.025 1.112.23.092.472.32.322.643.149.072.315.086.42.174l.075.172.148.123c.105.298-.128.51-.124.718.002.061.089.293.124.346.135.196.386.239.197.568.549 1.156 1.184 2.228 1.978 3.139h.222c.259.137.362.428.395.792.485.739 1.258 1.296 1.853 1.927.097.102.105.363.173.519.123.277.362.513.346.914.072.094.139.191.149.346l-.149.123c.053.414-.02 1.066-.494 1.113-.097-.035-.078-.187-.124-.272-.128.143-.35.345-.619.197-.078.188-.472.242-.568.025.151-.234.09-.78-.074-.888.054.35.179.895-.321.863-.177-.116-.13-.275-.173-.493-.125-.627-.662-1.065-.865-1.582-.216-.551-.157-1.153-.593-1.558-.294-.099-.727-.412-.642-.815-.745-1.035-1.556-2.002-2.397-2.941.065.597-.227 1.178-.247 1.706-.017.408.146.866-.025 1.285.275.864.466 1.808.618 2.793l-.124.172c.109.387.213 1.015-.024 1.335.194.253.321.568.469.864-.028.583.599 1.217.149 1.78.339.327.563.846.692 1.384.104.435.217.986.223 1.459.003.336.086.475.147.767.131.61.161 1.256.347 1.778.293.311.451.693.716 1.012.259.311.591.603.543 1.188.385.469.674 1.108.519 1.902-.029.147-.149.319-.148.494.001.409.411.938.545 1.334.066.204.148.484.197.741.083.438.233.866-.025 1.087.335.325.879.441.889 1.088.165-.038.266.046.358.146.372.019 1.165.084 1.595.325.323.127.459-.032.741-.1l.494-.05c.278-.066.441-.266.644-.246.079.006.165.056.236.119l.02-.003s.224.215.361.433c.186.124.242.373.124.562-.202.325-.728.622-1.137.889-1.025.671-2.497 1-3.756 1.409-.145.113-.4.24-.592.224-.121.133-.314.196-.545.223-.633.422-2.76.707-2.433-.617l-.003-.087c-.196-.489-.425-.941-.628-1.422-.081-.01-.129-.052-.173-.099-.029-.11-.088-.193-.073-.348-.078-.128-.181-.228-.198-.418-.691-.719-1.048-1.771-1.631-2.595-1.313.5-2.508 1.558-4.25 1.309-.162.253-.51.424-.643.693-.059.119-.035.254-.124.321-.291.215-.634-.256-.816-.421-.191-.174-.391-.314-.47-.494.15-.121.121-.243.198-.445l.247-.445c.083-.294.061-.481.322-.543-.189-.387-.42-.842-.346-1.409l.124-.395c.197-.909.074-2.055-.124-2.818-1.119 1.62-2.11 3.445-3.288 4.993-.411.539-.972.825-1.507 1.26.046.578.23 1.336.077 1.818.173.131.454.363.716.664.105.104.205.215.295.336.181.081.386.14.543.246.29-.063.449.08.716.173l.619.124c.134.044.247.148.334.283l.042.01s.399.509.165.862c-.016.155-.153.31-.269.376-.741.433-2.479.531-3.633.396-.864-.1-1.852-.318-2.249-.468-.227.049-.513-.047-.667-.148l-.173.024c-.622-.286-1.841-.368-2.272-.966-.074-.1-.128-.269-.101-.42z"/><path fill-rule="evenodd" clip-rule="evenodd" fill="#2C858D" d="M66.734 12.961c.062.032.119.069.152.128.02.387.135.597.229.89l.229.535c.072.307-.034.613.176.865.242 1.201.745 2.139 1.069 3.255.146.143.27.326.204.611.283.267.147.646.279 1.045.064.102.184.1.204.228.025.153-.124.231-.153.357v.482l-.176.304-.053.308c-.092.256-.267.489-.355.763-.101.304-.197.596-.229.89-.175.098-.175.295-.254.484-.12.28-.375.535-.383.763-.003.142.131.25.077.406-.084.137-.253.19-.434.229-.424.745-.797 1.542-1.093 2.417-.083.08-.262.06-.382.102-.221.653-.749.997-1.222 1.4-.289.304-.28.697-.331 1.119l-.228.763c-.05.603-.077 1.194-.153 1.806-.054.426-.217.797-.255 1.12-.061.535.128 1.084.052 1.603-.072.492-.379.931-.229 1.577.054.241.378.529.406.816.021.213-.102.698-.152.89-.049.181-.159.313-.153.508.008.206.136.404.128.612-.014.288-.14.633-.205.94-.07.334-.128.659-.176.992-.099.651-.32 1.275-.434 1.883-.084.453-.081.876-.203 1.246-.156.476-.525.694-.433 1.374.08.578.377 1.179.61 1.653.144-.016.23.023.331.051.121.438.355.934.203 1.424.485.205.751.727.713 1.374-.146.103-.107.298-.204.408-.2.228-.668.28-.992.306-.854.066-1.389-.227-1.984-.559l-1.527-.586c-.284-.249-.235-.605-.381-.865.02-1.252.183-2.448.33-3.512.118-.84.189-1.543.255-2.29.081-.913.19-1.75.229-2.619.026-.632.074-1.363.076-1.907.002-.355-.153-.621-.152-.943l.076-.457c.025-.439.037-.926.076-1.426.027-.368.152-.716.178-1.042l-.126-1.196c.028-.352.066-.679.051-1.068-.061-1.355-.326-2.737-.535-4.072-.575.615-1.12 1.373-1.627 2.164-.492.767-1.051 1.53-1.477 2.316-.095.174-.239.393-.305.584-.141.406-.133.761-.305 1.119l-.637.813c-.166.396-.094.938-.229 1.35-.092.28-.329.453-.433.66-.155.308.022.39.051.637.052.468-.128.986-.179 1.323-.069.466.011 1.087.051 1.577.106 1.336.059 2.642.153 3.942.064.911-.043 1.83.076 2.646.075.521.486 1.018.127 1.426.22.625-.439.788-.967.864-.647.093-1.385.199-2.163.281-.735.074-1.496.019-2.238.074-.467.035-1.061.059-1.528.025-.543-.04-1.176-.142-.813-.533-.18-.144-.328-.442-.229-.737.228-.68 1.91-.568 2.442-.942-.038-.486.314-.585.356-.991-.198-.294-.034-.612.025-.968.197-1.169.387-2.189.611-3.282.087-.432.21-.901.229-1.323.022-.518-.027-1.096-.052-1.653-.025-.565.029-1.137-.025-1.678-.056-.545-.21-1.255-.128-1.808.047-.315.257-.672.381-1.018.125-.341.297-.681.408-1.016.251-.767.432-1.541.662-2.188.507-1.437 1.162-2.763 1.628-4.046-.413-.486-.137-1.661-.458-2.239-.143.007-.259-.015-.357-.051-.1-.28.059-.559.052-.839-.017-.546-.128-1.053-.179-1.475-.191-1.6-.492-3.358-.408-4.962-.053-.125-.104-.217-.102-.33l.102-.229c-.003-.086-.19-.071-.102-.205l.204-.152-.102-.331.204-.075c.181-.702.33-1.545.458-2.317.106-.644.242-1.287.381-1.908.281-1.252.517-2.435 1.043-3.51.095-.194.27-.342.28-.586.219-.196.518-.312.89-.355-.02-.217.152-.138.306-.204.102-.045.15-.187.204-.206.276-.094.642.035.916-.101.006-.229-.045-.396-.027-.635.225-.022.433-.062.56-.178-.206-.027-.065-.112-.127-.153-.052-.151.103.104.152 0-.197-.129.007-.118-.101-.306.167.047.249.231.458.153-.128-.473-.475-.858-.635-1.324l-.102-.509c-.116-.293-.439-.497-.535-.787-.126.022-.172-.032-.23-.077-.166-.337-.115-.837-.15-1.146-.023-.185.023-.379.024-.584.001-.307-.046-.616 0-.839.148-.73.64-1.089 1.195-1.525l.331-.102.178-.179c.388-.025.75-.191 1.094-.153l.254.102c.367.062.615.173.891.332.379.214.793.359.941.685l.229.102c.052.142.114.277.254.333.007.229.151.323.279.43-.059.221.129.194.153.333.033.069.062.14.051.253.046.065.165.056.152.178-.009.213.068.336.152.509l-.075.229c.125.326.01.699.075.992.164.722.629 1.309 1.146 1.653l-.167-.05c.094.186.295.264.433.406-.376-.043-.621-.515-.865-.685.271.432.503.905.991 1.118-.157.118.079.044.102.178h-.151c0 .123.11.344.203.458-.019.089-.024.529.15.586-.042.127-.04.149 0 .304-.031.056-.097-.202-.151-.126-.083.195.122.158.203.204.25.139.633.223.813.432.258.296.253.691.483 1.044.279.069.4.294.561.482.003.129.011.266-.051.33.046.021.231.168.075.153-.069.123.009-.141-.127-.102-.054.046-.079.125-.1.204.22.001.226-.041.227.127l.103-.202c.134.574.644.895.738 1.424zm-3.51-4.274l-.103.025c.022.072.103.084.178.102l-.075-.127zm2.339 2.824c-.061.113.089.234.076.382.076-.043.086-.153.127-.229-.133-.034-.182-.042-.203-.153zm-.558 4.911c-.192.134-.109.311-.153.484-.112.442-.382.847-.533 1.349-.047.148-.145.328-.153.457-.06.732.718 1.458.254 2.188.266.627.352 1.71.279 2.645-.025.354.04.638-.202.815.088.046.178.091.329.075.077.094.095.241.026.357.25.29.262.813-.153.916.019.102.064.174.052.306.17-.118.218-.36.482-.383.109-.282.195-.584.383-.788-.149-.328.044-.637.331-.687l.151-.535-.05-.253c.02-.133.157-.186.203-.306l.026-.306c.08-.387.253-.776.38-1.096l-.075-.202c.042-.202.162-.328.255-.482-.036-.192-.041-.277-.18-.382.134-.189-.026-.322.128-.559-.286-.075-.23-.256-.305-.561-.055-.218-.24-.504-.357-.763-.336-.745-.775-1.588-1.118-2.289zm-10.686 3.052c-.116.096-.173.251-.254.382.089.18.022.358-.025.533.108.193.091.355.051.612.161-.417.281-.977.228-1.527zm-.077 4.249c.101-.146.249-.243.255-.484l-.306-.077c-.08.088-.006.446.051.561z"/><path fill-rule="evenodd" clip-rule="evenodd" fill="#2C858D" d="M72.329 16.632c.077-.348.212-.716.323-.998.52-1.303.956-2.351 1.437-3.779.228-.68.452-1.428.791-1.817.621-.716 1.779-1.025 2.667-1.379.019-.118.031-.24.089-.321.536-.303 1.004-.675 1.816-.704.084-.277.322-.401.586-.497-.019-.563-.005-.978 0-1.554-.294-.073-.257-.211-.322-.586-.062-.361-.289-1.175.117-1.202-.302-1.077.117-2.132.792-2.696.262-.22 1.08-.548 1.318-.558.145-.006.376.093.586.118.454.055.758.105 1.055.323.328.299.479.625.852.965.075.597.279 1.255.087 1.906.335.382.086 1.156.03 1.554l-.265.234c0 .54-.087.957-.292 1.26-.165.242-.456.31-.324.498l.47.938.294.264c.093.149.086.352.146.528.416.276.954.446 1.261.878.379.532.516 1.325.557 1.965.023.083.196.019.176.145-.114 1.024.226 2.4 0 3.516-.039.197-.205.347-.176.559.111-.006.298.023.41.116.192.157.485.782.469.938-.022.224-.33.256-.293.499.167.193.466.21.528.47l-.146.879c.048.358.302.47.381.792.194-.124.521-.115.586.116l-.439.236c.465.152.925.328 1.406.615.258.154 1.091.573 1.201.821.155.341.025.987.059 1.406.014.173.097.395.059.557-.11.486-1.05.873-1.405.732.121.615.519 1.368.204 1.905.231.675.421 1.308.704 1.906.129.272.37.659.352.937-.019.28-.282.688-.469.821-.298.212-1.449.56-1.904.499l-.47-.206c-.396-.035-.654.292-.908.41.084.157-.117.212-.205.352 0 .86-.039 1.634 0 2.462.04.909.005 1.851.058 2.697.024.398.156.826.116 1.2-.021.215-.117.469-.174.704-.394 1.645-.981 3.244-1.437 4.749.183.294.376.582.527.907.13-.002.26-.005.264.118.177.275-.061.562-.176.732.28.497.339.909.439 1.496.125.725.449 1.12 1.084 1.435l.732.264c.244.118.734.613.675.938-.055.297-.711.485-.996.559-.823.205-2.008.316-2.667-.294-.183-.168-.209-.372-.41-.409-.207-.04-.377.1-.587.116-.771.061-1.584-.197-1.905-.646.006-.392.04-.759.235-.966.013-.289.048-.557.175-.732-.044-.102-.092-.202-.088-.351-.217-.176-.41-.396-.497-.646-.196-.553-.12-1.52-.09-2.228.031-.664.017-1.425.06-2.022.078-1.074-.077-2.229 0-3.019.028-.296.142-.552.117-.82-.065-.714-.398-1.247-.381-1.905.013-.53.311-1.037.059-1.584-.311 1.097-.706 2.111-1.114 3.108-.247.603-.576.922-.674 1.7-.048.39-.145.774-.204 1.113-.031.172-.046.439-.031.587.058.536.264 1.12.352 1.7.093.596.273 1.251.206 1.845-.027.25-.173.574-.263.881-.209.692-.381 1.17-.763 1.582.579.046.265.676.352 1.144l.147.409c.009.154-.088.342-.117.53l-.089.557c.042.168.382.259.322.497.354.275.61.582.909.907.277.305.521.526.439 1.146-.341.204-.821.336-1.319.378-.88.075-2.03.216-2.402-.468-.146-.265-.084-.494-.322-.589h-.383c-.28-.057-.713-.429-.761-.642-.099-.428.175-.739.146-1.057-.305-.409-1.011-.774-.763-1.494.105-.304.588-.421.645-.703.071-.354-.278-.576-.322-.849-.03-.194.021-.388.03-.589.087-2.004.2-4.145.292-6.329.025-.61.024-1.147.177-1.76.141-.568.171-1.161.233-1.757.17-1.601.748-2.896.615-4.719-.044-.609-.248-1.104-.205-1.731l.118-.644v-.527c.056-.91.334-1.746.352-2.667-.34-.12-.794-.125-.645-.733-.207-.049-.522-.054-.646-.264-.101-.175-.049-.392-.088-.615-.066-.379-.271-.785-.381-1.232-.115-.476-.212-.941-.263-1.377-.635-.381-1.267-.812-1.817-1.26-.417-.337-.81-.519-1.026-1.056l-.088-.497-.146-.323c-.092-.399.08-.885.173-1.318z"/></svg>