<svg xmlns="http://www.w3.org/2000/svg" width="118" height="61.333"><rect x="9.297" y="9.434" fill="#2C858D" width="52.516" height="2.757"/><rect x="9.297" y="4.917" fill="#2C858D" width="52.516" height="2.757"/><rect x="9.297" y="18.468" fill="#2C858D" width="52.516" height="2.757"/><rect x="9.297" y="13.951" fill="#2C858D" width="52.516" height="2.757"/><rect x="65.42" y="42.516" fill="#2C858D" width="44.639" height="2.758"/><rect x="65.42" y="37.999" fill="#2C858D" width="44.639" height="2.758"/><rect x="65.42" y="51.551" fill="#2C858D" width="44.639" height="2.757"/><rect x="65.42" y="47.034" fill="#2C858D" width="44.639" height="2.757"/><path fill="#2C858D" d="M9.297 25.438v29.996h52.516v-29.996h-52.516zm46.504 26.562h-40.492v-23.128h40.492v23.128z"/><g fill="#2C858D"><polygon points="85.602,26.765 92.6,19.768 85.602,12.768"/><path d="M87.214 10.392c-5.176 0-9.374 4.196-9.374 9.376 0 5.178 4.198 9.373 9.374 9.373 5.178 0 9.374-4.195 9.374-9.373 0-5.18-4.196-9.376-9.374-9.376zm-.029 17.27c-4.286 0-7.762-3.474-7.762-7.759 0-4.286 3.476-7.761 7.762-7.761 4.284 0 7.76 3.475 7.76 7.761-.001 4.285-3.476 7.759-7.76 7.759zM65.419 5v29.997h44.64v-29.997h-44.64zm42.75 23.495c0 2.473-2.002 4.474-4.471 4.474h-31.925c-2.47 0-4.474-2.001-4.474-4.474v-16.997c0-2.472 2.004-4.473 4.474-4.473h31.925c2.469 0 4.471 2.001 4.471 4.473v16.997z"/></g><line fill="#fff" stroke="#2C858D" stroke-width="2" stroke-miterlimit="10" x1="12.25" y1="26.765" x2="57" y2="52.93"/><line stroke="#2C858D" stroke-width="2" stroke-miterlimit="10" x1="13.75" y1="52.93" x2="57" y2="29.141" fill="none"/></svg>