<svg xmlns="http://www.w3.org/2000/svg" width="118" height="61.333"><rect x="9.297" y="8.434" opacity=".27" fill="#2C858D" width="52.516" height="2.757"/><rect x="9.297" y="3.917" opacity=".27" fill="#2C858D" width="52.516" height="2.757"/><rect x="9.297" y="17.468" opacity=".27" fill="#2C858D" width="52.516" height="2.757"/><rect x="9.297" y="12.951" opacity=".27" fill="#2C858D" width="52.516" height="2.757"/><rect x="65.42" y="41.516" opacity=".27" fill="#2C858D" width="44.639" height="2.758"/><rect x="65.42" y="36.999" opacity=".27" fill="#2C858D" width="44.639" height="2.758"/><rect x="65.42" y="50.551" opacity=".27" fill="#2C858D" width="44.639" height="2.757"/><g fill="#2C858D"><rect x="55.408" y="10.827" width="9.311" height="29.875"/><rect x="45.126" y="20.462" width="29.875" height="9.311"/></g><rect x="65.42" y="46.034" opacity=".27" fill="#2C858D" width="44.639" height="2.757"/><path opacity=".27" fill="#2C858D" d="M9.297 24.438v29.996h52.516v-29.996h-52.516zm46.504 26.562h-40.492v-23.128h40.492v23.128z"/><g opacity=".27" fill="#2C858D"><polygon points="85.602,25.765 92.6,18.768 85.602,11.768"/><path d="M87.214 9.392c-5.176 0-9.374 4.196-9.374 9.376 0 5.178 4.198 9.373 9.374 9.373 5.178 0 9.374-4.195 9.374-9.373 0-5.18-4.196-9.376-9.374-9.376zm-.029 17.27c-4.286 0-7.762-3.474-7.762-7.759 0-4.286 3.476-7.761 7.762-7.761 4.284 0 7.76 3.475 7.76 7.761-.001 4.285-3.476 7.759-7.76 7.759zM65.419 4v29.997h44.64v-29.997h-44.64zm42.75 23.495c0 2.473-2.002 4.474-4.471 4.474h-31.925c-2.47 0-4.474-2.001-4.474-4.474v-16.997c0-2.472 2.004-4.473 4.474-4.473h31.925c2.469 0 4.471 2.001 4.471 4.473v16.997z"/></g><line opacity=".27" fill="#fff" stroke="#2C858D" stroke-width="2" stroke-miterlimit="10" x1="12.25" y1="25.765" x2="57" y2="51.93"/><line opacity=".27" stroke="#2C858D" stroke-width="2" stroke-miterlimit="10" x1="13.75" y1="51.93" x2="57" y2="28.141" fill="none"/></svg>