<?xml version="1.0" encoding="utf-8"?>
<!-- Generator: Adobe Illustrator 15.1.0, SVG Export Plug-In . SVG Version: 6.00 Build 0)  -->
<!DOCTYPE svg PUBLIC "-//W3C//DTD SVG 1.1//EN" "http://www.w3.org/Graphics/SVG/1.1/DTD/svg11.dtd">
<svg version="1.1" id="Layer_1" xmlns="http://www.w3.org/2000/svg" xmlns:xlink="http://www.w3.org/1999/xlink" x="0px" y="0px"
	 width="118px" height="61.333px" viewBox="0 0 118 61.333" enable-background="new 0 0 118 61.333" xml:space="preserve">
<path fill-rule="evenodd" clip-rule="evenodd" fill="#2C858D" d="M16.574,50.98c0.021-0.124,0.073-0.286,0.137-0.429
	c-0.009-0.183,0.026-0.393,0.265-0.701c0.039-0.161,0.073-0.318,0.043-0.5c0.403-0.934,0.888-1.781,1.31-2.694
	c0.074-0.032,0.167-0.047,0.247-0.075c0.405-0.599,0.682-1.559,1.112-2.124c0.158-0.209,0.477-0.239,0.617-0.446
	c0.156-0.228,0.245-0.654,0.371-0.987c0.643-1.702,1.27-3.28,2.001-4.868c0.195-0.426,0.447-0.974,0.742-1.335
	c0.113-0.14,0.292-0.268,0.321-0.37c0.036-0.131-0.021-0.302,0-0.496c0.041-0.38,0.252-0.791,0.396-1.21
	c0.134-0.394,0.426-0.682,0.519-1.088c0.113-0.494,0.139-0.943,0.248-1.358c0.163-0.614,0.387-1.328,0.741-1.73
	c-0.055-0.191-0.009-0.483-0.024-0.715c-0.099,0-0.159-0.04-0.197-0.099c0.066-0.698,0.184-1.384,0.222-2.102
	c0.021-0.377,0.125-0.783,0.075-1.185c-0.017-0.129-0.086-0.241-0.1-0.371c-0.051-0.497-0.005-1.01,0.024-1.41
	c0.047-0.621,0.442-0.995,0.494-1.532c0.062-0.637,0.187-1.28,0.322-1.828c0.05-0.204,0.138-0.463,0.125-0.592
	c-0.022-0.196-0.245-0.261-0.297-0.446c0.003-0.087,0.071-0.109,0.074-0.197c-0.446-0.946,0.229-1.771,0.816-2.199
	c-0.09-0.855,0.389-1.497,0.445-2.274c0.025-0.35-0.062-0.699-0.074-0.938c-0.015-0.268,0.074-0.363,0.124-0.544
	c0.081-0.293,0.095-0.615,0.173-0.914c0.197-0.768,0.648-1.491,1.038-2.126c0.431-0.701,0.904-1.33,1.557-1.631
	c0.066-0.223,0.291-0.285,0.395-0.47c0.043-0.056,0.188-0.009,0.272-0.024c0.658-0.363,0.968-1.075,1.31-1.754
	c-0.154-0.018-0.103-0.172-0.149-0.272c-0.071-0.161-0.288-0.228-0.246-0.494c0.018-0.073,0.074-0.108,0.049-0.223
	c-0.289-0.317-0.295-0.815-0.247-1.21c0.022-0.182,0.089-0.468,0.174-0.643c0.041-0.086,0.138-0.15,0.172-0.247
	c0.096-0.261,0.042-0.438,0.174-0.618c0.052-0.072,0.138-0.09,0.198-0.172c0.12-0.167,0.205-0.379,0.345-0.544
	c0.181-0.215,0.533-0.322,0.767-0.47c0.167-0.107,0.246-0.308,0.37-0.37c0.282-0.144,0.744-0.217,1.087-0.274
	c0.281-0.046,0.587-0.013,0.815,0.051c0.115,0.033,0.247-0.001,0.345,0.024c0.098,0.025,0.173,0.115,0.272,0.15
	c0.226,0.076,0.414,0.076,0.569,0.172c0.118,0.073,0.182,0.22,0.321,0.322c0.059,0.042,0.14,0.042,0.198,0.099
	c0.053,0.051,0.078,0.17,0.148,0.247c0.228,0.244,0.523,0.295,0.519,0.644c0.448,0.382,0.991,1.927,0.296,2.396
	c-0.083-0.008-0.142-0.04-0.247-0.025c-0.054,0.306-0.172,0.545-0.248,0.766c-0.034,0.102-0.035,0.219-0.074,0.322
	c-0.077,0.21-0.295,0.314-0.396,0.496c-0.188,0.339,0.195,0.718,0.098,1.185c-0.086,0.159-0.264,0.229-0.543,0.198
	c-0.118,0.087-0.044,0.37-0.124,0.495c-0.058,0.047-0.166,0.047-0.222,0.099c0.076,0.127-0.042,0.246-0.099,0.322
	c-0.069,0.044-0.23-0.001-0.295,0.049c-0.28,0.242-0.544,0.567-0.989,0.519C35,10.156,34.851,9.65,34.54,9.438
	c-0.292,0.279-0.61,0.529-0.718,0.989c0.412,0.474,0.803,1.162,0.866,2.025c0.032,0.438-0.081,0.922-0.049,1.409
	c0.024,0.409,0.08,0.809,0.099,1.212c0.021,0.475-0.057,0.879-0.099,1.309c-0.027,0.271-0.033,0.65,0,0.864
	c0.058,0.391,0.398,0.647,0.37,1.039c-0.177,0.341-0.032,0.688-0.025,1.112c0.23,0.092,0.472,0.32,0.322,0.643
	c0.149,0.072,0.315,0.086,0.42,0.174c0.053,0.043,0.022,0.1,0.075,0.172c0.043,0.061,0.127,0.062,0.148,0.123
	c0.105,0.298-0.128,0.51-0.124,0.718c0.002,0.061,0.089,0.293,0.124,0.346c0.135,0.196,0.386,0.239,0.197,0.568
	c0.549,1.156,1.184,2.228,1.978,3.139c0.104,0.003,0.137-0.045,0.222,0c0.259,0.137,0.362,0.428,0.395,0.792
	c0.485,0.739,1.258,1.296,1.853,1.927c0.097,0.102,0.105,0.363,0.173,0.519c0.123,0.277,0.362,0.513,0.346,0.914
	c0.072,0.094,0.139,0.191,0.149,0.346c-0.004,0.087-0.151,0.03-0.149,0.123c0.053,0.414-0.02,1.066-0.494,1.113
	c-0.097-0.035-0.078-0.187-0.124-0.272c-0.128,0.143-0.35,0.345-0.619,0.197c-0.078,0.188-0.472,0.242-0.568,0.025
	c0.151-0.234,0.09-0.78-0.074-0.888c0.054,0.35,0.179,0.895-0.321,0.863c-0.177-0.116-0.13-0.275-0.173-0.493
	c-0.125-0.627-0.662-1.065-0.865-1.582c-0.216-0.551-0.157-1.153-0.593-1.558c-0.294-0.099-0.727-0.412-0.642-0.815
	c-0.745-1.035-1.556-2.002-2.397-2.941c0.065,0.597-0.227,1.178-0.247,1.706c-0.017,0.408,0.146,0.866-0.025,1.285
	c0.275,0.864,0.466,1.808,0.618,2.793c-0.002,0.096-0.099,0.097-0.124,0.172c0.109,0.387,0.213,1.015-0.024,1.335
	c0.194,0.253,0.321,0.568,0.469,0.864c-0.028,0.583,0.599,1.217,0.149,1.78c0.339,0.327,0.563,0.846,0.692,1.384
	c0.104,0.435,0.217,0.986,0.223,1.459c0.003,0.336,0.086,0.475,0.147,0.767c0.131,0.61,0.161,1.256,0.347,1.778
	c0.293,0.311,0.451,0.693,0.716,1.012c0.259,0.311,0.591,0.603,0.543,1.188c0.385,0.469,0.674,1.108,0.519,1.902
	c-0.029,0.147-0.149,0.319-0.148,0.494c0.001,0.409,0.411,0.938,0.545,1.334c0.066,0.204,0.148,0.484,0.197,0.741
	c0.083,0.438,0.233,0.866-0.025,1.087c0.335,0.325,0.879,0.441,0.889,1.088c0.165-0.038,0.266,0.046,0.358,0.146
	c0.372,0.019,1.165,0.084,1.595,0.325c0.323,0.127,0.459-0.032,0.741-0.1c0.158-0.037,0.349-0.015,0.494-0.05
	c0.278-0.066,0.441-0.266,0.644-0.246c0.079,0.006,0.165,0.056,0.236,0.119l0.02-0.003c0,0,0.224,0.215,0.361,0.433
	c0.186,0.124,0.242,0.373,0.124,0.562c-0.202,0.325-0.728,0.622-1.137,0.889c-1.025,0.671-2.497,1-3.756,1.409
	c-0.145,0.113-0.4,0.24-0.592,0.224c-0.121,0.133-0.314,0.196-0.545,0.223c-0.633,0.422-2.76,0.707-2.433-0.617l-0.003-0.087
	c-0.196-0.489-0.425-0.941-0.628-1.422c-0.081-0.01-0.129-0.052-0.173-0.099c-0.029-0.11-0.088-0.193-0.073-0.348
	c-0.078-0.128-0.181-0.228-0.198-0.418c-0.691-0.719-1.048-1.771-1.631-2.595c-1.313,0.5-2.508,1.558-4.25,1.309
	c-0.162,0.253-0.51,0.424-0.643,0.693c-0.059,0.119-0.035,0.254-0.124,0.321c-0.291,0.215-0.634-0.256-0.816-0.421
	c-0.191-0.174-0.391-0.314-0.47-0.494c0.15-0.121,0.121-0.243,0.198-0.445c0.061-0.157,0.208-0.309,0.247-0.445
	c0.083-0.294,0.061-0.481,0.322-0.543c-0.189-0.387-0.42-0.842-0.346-1.409c0.018-0.136,0.095-0.264,0.124-0.395
	c0.197-0.909,0.074-2.055-0.124-2.818c-1.119,1.62-2.11,3.445-3.288,4.993c-0.411,0.539-0.972,0.825-1.507,1.26
	c0.046,0.578,0.23,1.336,0.077,1.818c0.173,0.131,0.454,0.363,0.716,0.664c0.105,0.104,0.205,0.215,0.295,0.336
	c0.181,0.081,0.386,0.14,0.543,0.246c0.29-0.063,0.449,0.08,0.716,0.173c0.208,0.071,0.443,0.066,0.619,0.124
	c0.134,0.044,0.247,0.148,0.334,0.283l0.042,0.01c0,0,0.399,0.509,0.165,0.862c-0.016,0.155-0.153,0.31-0.269,0.376
	c-0.741,0.433-2.479,0.531-3.633,0.396c-0.864-0.1-1.852-0.318-2.249-0.468c-0.227,0.049-0.513-0.047-0.667-0.148
	c-0.032,0.032-0.107,0.024-0.173,0.024c-0.622-0.286-1.841-0.368-2.272-0.966C16.601,51.3,16.547,51.131,16.574,50.98z"/>
<path fill-rule="evenodd" clip-rule="evenodd" fill="#2C858D" d="M66.734,12.961c0.062,0.032,0.119,0.069,0.152,0.128
	c0.02,0.387,0.135,0.597,0.229,0.89c0.062,0.192,0.19,0.377,0.229,0.535c0.072,0.307-0.034,0.613,0.176,0.865
	c0.242,1.201,0.745,2.139,1.069,3.255c0.146,0.143,0.27,0.326,0.204,0.611c0.283,0.267,0.147,0.646,0.279,1.045
	c0.064,0.102,0.184,0.1,0.204,0.228c0.025,0.153-0.124,0.231-0.153,0.357c-0.036,0.151,0.04,0.316,0,0.482
	c-0.026,0.11-0.137,0.197-0.176,0.304c-0.035,0.094-0.019,0.21-0.053,0.308c-0.092,0.256-0.267,0.489-0.355,0.763
	c-0.101,0.304-0.197,0.596-0.229,0.89c-0.175,0.098-0.175,0.295-0.254,0.484c-0.12,0.28-0.375,0.535-0.383,0.763
	c-0.003,0.142,0.131,0.25,0.077,0.406c-0.084,0.137-0.253,0.19-0.434,0.229c-0.424,0.745-0.797,1.542-1.093,2.417
	c-0.083,0.08-0.262,0.06-0.382,0.102c-0.221,0.653-0.749,0.997-1.222,1.4c-0.289,0.304-0.28,0.697-0.331,1.119
	c-0.03,0.27-0.207,0.497-0.228,0.763c-0.05,0.603-0.077,1.194-0.153,1.806c-0.054,0.426-0.217,0.797-0.255,1.12
	c-0.061,0.535,0.128,1.084,0.052,1.603c-0.072,0.492-0.379,0.931-0.229,1.577c0.054,0.241,0.378,0.529,0.406,0.816
	c0.021,0.213-0.102,0.698-0.152,0.89c-0.049,0.181-0.159,0.313-0.153,0.508c0.008,0.206,0.136,0.404,0.128,0.612
	c-0.014,0.288-0.14,0.633-0.205,0.94c-0.07,0.334-0.128,0.659-0.176,0.992c-0.099,0.651-0.32,1.275-0.434,1.883
	c-0.084,0.453-0.081,0.876-0.203,1.246c-0.156,0.476-0.525,0.694-0.433,1.374c0.08,0.578,0.377,1.179,0.61,1.653
	c0.144-0.016,0.23,0.023,0.331,0.051c0.121,0.438,0.355,0.934,0.203,1.424c0.485,0.205,0.751,0.727,0.713,1.374
	c-0.146,0.103-0.107,0.298-0.204,0.408c-0.2,0.228-0.668,0.28-0.992,0.306c-0.854,0.066-1.389-0.227-1.984-0.559
	c-0.522-0.294-1.114-0.322-1.527-0.586c-0.284-0.249-0.235-0.605-0.381-0.865c0.02-1.252,0.183-2.448,0.33-3.512
	c0.118-0.84,0.189-1.543,0.255-2.29c0.081-0.913,0.19-1.75,0.229-2.619c0.026-0.632,0.074-1.363,0.076-1.907
	c0.002-0.355-0.153-0.621-0.152-0.943c0.001-0.151,0.067-0.3,0.076-0.457c0.025-0.439,0.037-0.926,0.076-1.426
	c0.027-0.368,0.152-0.716,0.178-1.042c0.04-0.52-0.168-0.692-0.126-1.196c0.028-0.352,0.066-0.679,0.051-1.068
	c-0.061-1.355-0.326-2.737-0.535-4.072c-0.575,0.615-1.12,1.373-1.627,2.164c-0.492,0.767-1.051,1.53-1.477,2.316
	c-0.095,0.174-0.239,0.393-0.305,0.584c-0.141,0.406-0.133,0.761-0.305,1.119c-0.156,0.321-0.515,0.525-0.637,0.813
	c-0.166,0.396-0.094,0.938-0.229,1.35c-0.092,0.28-0.329,0.453-0.433,0.66c-0.155,0.308,0.022,0.39,0.051,0.637
	c0.052,0.468-0.128,0.986-0.179,1.323c-0.069,0.466,0.011,1.087,0.051,1.577c0.106,1.336,0.059,2.642,0.153,3.942
	c0.064,0.911-0.043,1.83,0.076,2.646c0.075,0.521,0.486,1.018,0.127,1.426c0.22,0.625-0.439,0.788-0.967,0.864
	c-0.647,0.093-1.385,0.199-2.163,0.281c-0.735,0.074-1.496,0.019-2.238,0.074c-0.467,0.035-1.061,0.059-1.528,0.025
	c-0.543-0.04-1.176-0.142-0.813-0.533c-0.18-0.144-0.328-0.442-0.229-0.737c0.228-0.68,1.91-0.568,2.442-0.942
	c-0.038-0.486,0.314-0.585,0.356-0.991c-0.198-0.294-0.034-0.612,0.025-0.968c0.197-1.169,0.387-2.189,0.611-3.282
	c0.087-0.432,0.21-0.901,0.229-1.323c0.022-0.518-0.027-1.096-0.052-1.653c-0.025-0.565,0.029-1.137-0.025-1.678
	c-0.056-0.545-0.21-1.255-0.128-1.808c0.047-0.315,0.257-0.672,0.381-1.018c0.125-0.341,0.297-0.681,0.408-1.016
	c0.251-0.767,0.432-1.541,0.662-2.188c0.507-1.437,1.162-2.763,1.628-4.046c-0.413-0.486-0.137-1.661-0.458-2.239
	c-0.143,0.007-0.259-0.015-0.357-0.051c-0.1-0.28,0.059-0.559,0.052-0.839c-0.017-0.546-0.128-1.053-0.179-1.475
	c-0.191-1.6-0.492-3.358-0.408-4.962c-0.053-0.125-0.104-0.217-0.102-0.33c0.001-0.1,0.105-0.159,0.102-0.229
	c-0.003-0.086-0.19-0.071-0.102-0.205c0.022-0.096,0.186-0.05,0.204-0.152c0.029-0.164-0.178-0.2-0.102-0.331
	c0.012-0.082,0.169-0.018,0.204-0.075c0.181-0.702,0.33-1.545,0.458-2.317c0.106-0.644,0.242-1.287,0.381-1.908
	c0.281-1.252,0.517-2.435,1.043-3.51c0.095-0.194,0.27-0.342,0.28-0.586c0.219-0.196,0.518-0.312,0.89-0.355
	c-0.02-0.217,0.152-0.138,0.306-0.204c0.102-0.045,0.15-0.187,0.204-0.206c0.276-0.094,0.642,0.035,0.916-0.101
	c0.006-0.229-0.045-0.396-0.027-0.635c0.225-0.022,0.433-0.062,0.56-0.178c-0.206-0.027-0.065-0.112-0.127-0.153
	c-0.052-0.151,0.103,0.104,0.152,0c-0.197-0.129,0.007-0.118-0.101-0.306c0.167,0.047,0.249,0.231,0.458,0.153
	c-0.128-0.473-0.475-0.858-0.635-1.324c-0.058-0.162-0.041-0.347-0.102-0.509c-0.116-0.293-0.439-0.497-0.535-0.787
	c-0.126,0.022-0.172-0.032-0.23-0.077c-0.166-0.337-0.115-0.837-0.15-1.146c-0.023-0.185,0.023-0.379,0.024-0.584
	c0.001-0.307-0.046-0.616,0-0.839c0.148-0.73,0.64-1.089,1.195-1.525c0.127-0.018,0.192-0.098,0.331-0.102
	c0.06-0.059,0.118-0.12,0.178-0.179c0.388-0.025,0.75-0.191,1.094-0.153c0.066,0.007,0.159,0.084,0.254,0.102
	c0.367,0.062,0.615,0.173,0.891,0.332c0.379,0.214,0.793,0.359,0.941,0.685c0.107,0.005,0.121,0.1,0.229,0.102
	c0.052,0.142,0.114,0.277,0.254,0.333c0.007,0.229,0.151,0.323,0.279,0.43c-0.059,0.221,0.129,0.194,0.153,0.333
	c0.033,0.069,0.062,0.14,0.051,0.253c0.046,0.065,0.165,0.056,0.152,0.178c-0.009,0.213,0.068,0.336,0.152,0.509
	c-0.008,0.094-0.062,0.14-0.075,0.229c0.125,0.326,0.01,0.699,0.075,0.992c0.164,0.722,0.629,1.309,1.146,1.653
	C63.2,6.69,63.128,6.572,63.097,6.626c0.094,0.186,0.295,0.264,0.433,0.406c-0.376-0.043-0.621-0.515-0.865-0.685
	c0.271,0.432,0.503,0.905,0.991,1.118c-0.157,0.118,0.079,0.044,0.102,0.178c-0.065,0.027-0.12-0.078-0.151,0
	c0,0.123,0.11,0.344,0.203,0.458C63.791,8.19,63.786,8.63,63.96,8.687c-0.042,0.127-0.04,0.149,0,0.304
	c-0.031,0.056-0.097-0.202-0.151-0.126c-0.083,0.195,0.122,0.158,0.203,0.204c0.25,0.139,0.633,0.223,0.813,0.432
	c0.258,0.296,0.253,0.691,0.483,1.044c0.279,0.069,0.4,0.294,0.561,0.482c0.003,0.129,0.011,0.266-0.051,0.33
	c0.046,0.021,0.231,0.168,0.075,0.153c-0.069,0.123,0.009-0.141-0.127-0.102c-0.054,0.046-0.079,0.125-0.1,0.204
	c0.22,0.001,0.226-0.041,0.227,0.127c0.103-0.046,0.017-0.132,0.103-0.202C66.13,12.111,66.64,12.432,66.734,12.961z M63.224,8.687
	c-0.046-0.003-0.054,0.032-0.103,0.025c0.022,0.072,0.103,0.084,0.178,0.102C63.324,8.722,63.177,8.803,63.224,8.687z
	 M65.563,11.511c-0.061,0.113,0.089,0.234,0.076,0.382c0.076-0.043,0.086-0.153,0.127-0.229
	C65.633,11.63,65.584,11.622,65.563,11.511z M65.005,16.422c-0.192,0.134-0.109,0.311-0.153,0.484
	c-0.112,0.442-0.382,0.847-0.533,1.349c-0.047,0.148-0.145,0.328-0.153,0.457c-0.06,0.732,0.718,1.458,0.254,2.188
	c0.266,0.627,0.352,1.71,0.279,2.645c-0.025,0.354,0.04,0.638-0.202,0.815c0.088,0.046,0.178,0.091,0.329,0.075
	c0.077,0.094,0.095,0.241,0.026,0.357c0.25,0.29,0.262,0.813-0.153,0.916c0.019,0.102,0.064,0.174,0.052,0.306
	c0.17-0.118,0.218-0.36,0.482-0.383c0.109-0.282,0.195-0.584,0.383-0.788c-0.149-0.328,0.044-0.637,0.331-0.687
	c-0.006-0.202,0.148-0.325,0.151-0.535c0.002-0.08-0.063-0.168-0.05-0.253c0.02-0.133,0.157-0.186,0.203-0.306
	c0.034-0.091,0.005-0.207,0.026-0.306c0.08-0.387,0.253-0.776,0.38-1.096c-0.023-0.067-0.041-0.143-0.075-0.202
	c0.042-0.202,0.162-0.328,0.255-0.482c-0.036-0.192-0.041-0.277-0.18-0.382c0.134-0.189-0.026-0.322,0.128-0.559
	c-0.286-0.075-0.23-0.256-0.305-0.561c-0.055-0.218-0.24-0.504-0.357-0.763C65.787,17.966,65.348,17.123,65.005,16.422z
	 M54.319,19.474c-0.116,0.096-0.173,0.251-0.254,0.382c0.089,0.18,0.022,0.358-0.025,0.533c0.108,0.193,0.091,0.355,0.051,0.612
	C54.252,20.584,54.372,20.024,54.319,19.474z M54.242,23.723c0.101-0.146,0.249-0.243,0.255-0.484
	c-0.104-0.022-0.213-0.04-0.306-0.077C54.111,23.25,54.185,23.608,54.242,23.723z"/>
<path fill-rule="evenodd" clip-rule="evenodd" fill="#2C858D" d="M72.329,16.632c0.077-0.348,0.212-0.716,0.323-0.998
	c0.52-1.303,0.956-2.351,1.437-3.779c0.228-0.68,0.452-1.428,0.791-1.817c0.621-0.716,1.779-1.025,2.667-1.379
	c0.019-0.118,0.031-0.24,0.089-0.321c0.536-0.303,1.004-0.675,1.816-0.704c0.084-0.277,0.322-0.401,0.586-0.497
	c-0.019-0.563-0.005-0.978,0-1.554c-0.294-0.073-0.257-0.211-0.322-0.586c-0.062-0.361-0.289-1.175,0.117-1.202
	c-0.302-1.077,0.117-2.132,0.792-2.696c0.262-0.22,1.08-0.548,1.318-0.558c0.145-0.006,0.376,0.093,0.586,0.118
	c0.454,0.055,0.758,0.105,1.055,0.323c0.328,0.299,0.479,0.625,0.852,0.965c0.075,0.597,0.279,1.255,0.087,1.906
	c0.335,0.382,0.086,1.156,0.03,1.554c-0.025,0.141-0.241,0.091-0.265,0.234c0,0.54-0.087,0.957-0.292,1.26
	c-0.165,0.242-0.456,0.31-0.324,0.498c0.188,0.268,0.31,0.726,0.47,0.938c0.093,0.123,0.239,0.177,0.294,0.264
	c0.093,0.149,0.086,0.352,0.146,0.528c0.416,0.276,0.954,0.446,1.261,0.878c0.379,0.532,0.516,1.325,0.557,1.965
	c0.023,0.083,0.196,0.019,0.176,0.145c-0.114,1.024,0.226,2.4,0,3.516c-0.039,0.197-0.205,0.347-0.176,0.559
	c0.111-0.006,0.298,0.023,0.41,0.116c0.192,0.157,0.485,0.782,0.469,0.938c-0.022,0.224-0.33,0.256-0.293,0.499
	c0.167,0.193,0.466,0.21,0.528,0.47c0.062,0.266-0.192,0.545-0.146,0.879c0.048,0.358,0.302,0.47,0.381,0.792
	c0.194-0.124,0.521-0.115,0.586,0.116c-0.062,0.162-0.384,0.067-0.439,0.236c0.465,0.152,0.925,0.328,1.406,0.615
	c0.258,0.154,1.091,0.573,1.201,0.821c0.155,0.341,0.025,0.987,0.059,1.406c0.014,0.173,0.097,0.395,0.059,0.557
	c-0.11,0.486-1.05,0.873-1.405,0.732c0.121,0.615,0.519,1.368,0.204,1.905c0.231,0.675,0.421,1.308,0.704,1.906
	c0.129,0.272,0.37,0.659,0.352,0.937c-0.019,0.28-0.282,0.688-0.469,0.821c-0.298,0.212-1.449,0.56-1.904,0.499
	c-0.17-0.022-0.324-0.192-0.47-0.206c-0.396-0.035-0.654,0.292-0.908,0.41c0.084,0.157-0.117,0.212-0.205,0.352
	c0,0.86-0.039,1.634,0,2.462c0.04,0.909,0.005,1.851,0.058,2.697c0.024,0.398,0.156,0.826,0.116,1.2
	c-0.021,0.215-0.117,0.469-0.174,0.704c-0.394,1.645-0.981,3.244-1.437,4.749c0.183,0.294,0.376,0.582,0.527,0.907
	c0.13-0.002,0.26-0.005,0.264,0.118c0.177,0.275-0.061,0.562-0.176,0.732c0.28,0.497,0.339,0.909,0.439,1.496
	c0.125,0.725,0.449,1.12,1.084,1.435c0.23,0.115,0.517,0.159,0.732,0.264c0.244,0.118,0.734,0.613,0.675,0.938
	c-0.055,0.297-0.711,0.485-0.996,0.559c-0.823,0.205-2.008,0.316-2.667-0.294c-0.183-0.168-0.209-0.372-0.41-0.409
	c-0.207-0.04-0.377,0.1-0.587,0.116c-0.771,0.061-1.584-0.197-1.905-0.646c0.006-0.392,0.04-0.759,0.235-0.966
	c0.013-0.289,0.048-0.557,0.175-0.732c-0.044-0.102-0.092-0.202-0.088-0.351c-0.217-0.176-0.41-0.396-0.497-0.646
	c-0.196-0.553-0.12-1.52-0.09-2.228c0.031-0.664,0.017-1.425,0.06-2.022c0.078-1.074-0.077-2.229,0-3.019
	c0.028-0.296,0.142-0.552,0.117-0.82c-0.065-0.714-0.398-1.247-0.381-1.905c0.013-0.53,0.311-1.037,0.059-1.584
	c-0.311,1.097-0.706,2.111-1.114,3.108c-0.247,0.603-0.576,0.922-0.674,1.7c-0.048,0.39-0.145,0.774-0.204,1.113
	c-0.031,0.172-0.046,0.439-0.031,0.587c0.058,0.536,0.264,1.12,0.352,1.7c0.093,0.596,0.273,1.251,0.206,1.845
	c-0.027,0.25-0.173,0.574-0.263,0.881c-0.209,0.692-0.381,1.17-0.763,1.582c0.579,0.046,0.265,0.676,0.352,1.144
	c0.029,0.157,0.14,0.3,0.147,0.409c0.009,0.154-0.088,0.342-0.117,0.53c-0.018,0.1-0.092,0.542-0.089,0.557
	c0.042,0.168,0.382,0.259,0.322,0.497c0.354,0.275,0.61,0.582,0.909,0.907c0.277,0.305,0.521,0.526,0.439,1.146
	c-0.341,0.204-0.821,0.336-1.319,0.378c-0.88,0.075-2.03,0.216-2.402-0.468c-0.146-0.265-0.084-0.494-0.322-0.589
	c-0.134-0.048-0.233,0.032-0.383,0c-0.28-0.057-0.713-0.429-0.761-0.642c-0.099-0.428,0.175-0.739,0.146-1.057
	c-0.305-0.409-1.011-0.774-0.763-1.494c0.105-0.304,0.588-0.421,0.645-0.703c0.071-0.354-0.278-0.576-0.322-0.849
	c-0.03-0.194,0.021-0.388,0.03-0.589c0.087-2.004,0.2-4.145,0.292-6.329c0.025-0.61,0.024-1.147,0.177-1.76
	c0.141-0.568,0.171-1.161,0.233-1.757c0.17-1.601,0.748-2.896,0.615-4.719c-0.044-0.609-0.248-1.104-0.205-1.731
	c0.015-0.206,0.095-0.422,0.118-0.644c0.018-0.175-0.012-0.358,0-0.527c0.056-0.91,0.334-1.746,0.352-2.667
	c-0.34-0.12-0.794-0.125-0.645-0.733c-0.207-0.049-0.522-0.054-0.646-0.264c-0.101-0.175-0.049-0.392-0.088-0.615
	c-0.066-0.379-0.271-0.785-0.381-1.232c-0.115-0.476-0.212-0.941-0.263-1.377c-0.635-0.381-1.267-0.812-1.817-1.26
	c-0.417-0.337-0.81-0.519-1.026-1.056c-0.058-0.137-0.039-0.336-0.088-0.497c-0.039-0.13-0.123-0.22-0.146-0.323
	C72.064,17.551,72.236,17.065,72.329,16.632z"/>
</svg>
